<svg xmlns="http://www.w3.org/2000/svg" width="1920" height="1080" viewBox="0 0 1920 1080"><rect width="100%" height="100%" fill="#DDDDDD"/><path fill="#999999" d="M451.64 565.47h-30.38v55.69h-30.79V467.6h61.17q26.47 0 41.66 13.5 15.19 13.5 15.19 35.54t-15.19 35.44q-15.19 13.39-41.66 13.39Zm-30.38-74.14v50.41h30.38q12.87 0 19.51-7.01 6.65-7.02 6.65-17.88 0-11.07-6.6-18.3-6.59-7.22-19.56-7.22h-30.38Zm139.75-34.7v164.53h-30.8V456.63h30.8Zm123.08 164.53H653.3q-1.69-3.9-2.91-8.23-1.21-4.32-1.74-8.86-4.74 8.34-12.49 13.82-7.76 5.48-18.51 5.48-17.93 0-27.64-9.22-9.7-9.23-9.7-25.16 0-16.77 12.92-26 12.92-9.22 37.71-9.22h17.19v-9.07q0-8.23-4.33-12.77-4.32-4.53-12.76-4.53-7.49 0-11.55 3.64-4.06 3.64-4.06 10.07l-29.74-.11-.11-.63q-.73-14.45 12.55-24.94 13.29-10.5 34.92-10.5 20.46 0 33.22 10.39 12.76 10.39 12.76 29.59v47.14q0 8.02 1.21 15.08 1.22 7.07 3.85 14.03Zm-58.96-20.57q8.13 0 14.45-4 6.33-4.01 8.55-9.29v-16.13h-17.19q-9.81 0-14.88 4.9-5.06 4.91-5.06 11.87 0 5.69 3.8 9.17 3.8 3.48 10.33 3.48Zm125.09-.84q8.23 0 13.18-4.8 4.96-4.8 4.96-12.81h27.95l.32.63q.42 17.3-13.03 28.95-13.45 11.65-33.38 11.65-25.52 0-39.34-16.13-13.82-16.14-13.82-41.45v-3.17q0-25.2 13.77-41.44 13.76-16.25 39.29-16.25 21.09 0 34.01 12.03 12.92 12.02 12.5 31.64l-.21.63h-28.06q0-8.86-4.85-14.71-4.85-5.86-13.39-5.86-12.24 0-17.25 9.5-5.01 9.49-5.01 24.46v3.17q0 15.29 5.01 24.63 5.01 9.33 17.35 9.33Zm114.43 23.62q-24.68 0-39.44-15.82-14.77-15.82-14.77-40.18v-4.22q0-25.42 13.98-41.87 13.97-16.45 37.49-16.35 23.1 0 35.86 13.93 12.76 13.92 12.76 37.65v16.77H842.4l-.21.63q.84 11.29 7.54 18.56 6.7 7.28 18.19 7.28 10.23 0 16.98-2.06 6.75-2.05 14.77-6.48l8.33 18.98q-6.96 5.7-18.24 9.44-11.29 3.74-25.11 3.74Zm-2.74-94.71q-8.54 0-13.5 6.54-4.95 6.54-6.11 17.19l.31.53h37.76v-2.74q0-9.81-4.59-15.66-4.59-5.86-13.87-5.86Zm96.61-72.03v64.86q5.38-7.8 13.19-12.18 7.8-4.38 17.29-4.38 17.83 0 28 11.87 10.18 11.86 10.18 36.65v67.71h-30.8v-67.92q0-13.29-4.69-18.83-4.69-5.54-13.97-5.54-6.33 0-11.18 2.27t-8.02 6.38v83.64h-30.8V456.63h30.8Zm87.12 108.63v-2.21q0-25.53 14.24-41.82 14.24-16.3 39.44-16.3 25.31 0 39.66 16.25 14.34 16.24 14.34 41.87v2.21q0 25.74-14.29 41.93-14.29 16.18-39.5 16.18-25.31 0-39.6-16.18-14.29-16.19-14.29-41.93Zm30.69-2.21v2.21q0 15.61 5.48 25.05 5.49 9.44 17.72 9.44 11.92 0 17.46-9.49 5.54-9.49 5.54-25v-2.21q0-15.19-5.59-24.79t-17.62-9.6q-11.92 0-17.45 9.65-5.54 9.65-5.54 24.74Zm128.36-106.42v164.53h-30.8V456.63h30.8Zm20.56 110.64v-2.22q0-27 11.66-43.56 11.65-16.56 32.85-16.56 8.54 0 15.4 3.69 6.85 3.7 12.02 10.55v-62.54h30.9v164.53h-26.47l-2.53-13.92q-5.38 7.91-12.71 12.02-7.33 4.11-16.82 4.11-20.99 0-32.64-15.39-11.66-15.4-11.66-40.71Zm30.69-2.22v2.22q0 14.97 5.07 23.57 5.06 8.59 16.45 8.59 6.64 0 11.6-2.69t8.12-7.85v-48.62q-3.16-5.38-8.07-8.39-4.9-3.01-11.44-3.01-11.29 0-16.51 10.02-5.22 10.02-5.22 26.16Zm146.5 58.32q-24.68 0-39.45-15.82-14.76-15.82-14.76-40.18v-4.22q0-25.42 13.97-41.87 13.98-16.45 37.5-16.35 23.1 0 35.86 13.93 12.76 13.92 12.76 37.65v16.77h-68.13l-.22.63q.85 11.29 7.55 18.56 6.69 7.28 18.19 7.28 10.23 0 16.98-2.06 6.75-2.05 14.77-6.48l8.33 18.98q-6.96 5.7-18.25 9.44-11.28 3.74-25.1 3.74Zm-2.74-94.71q-8.55 0-13.5 6.54-4.96 6.54-6.12 17.19l.32.53h37.75v-2.74q0-9.81-4.58-15.66-4.59-5.86-13.87-5.86Zm129.83-22.46-3.27 27.32-11.29-.32q-6.85 0-11.28 2.85-4.43 2.84-6.75 8.01v77.1h-30.69V507.04h28.58l1.37 16.88q4.01-8.97 10.39-13.98 6.38-5.01 14.71-5.01 2.32 0 4.27.37 1.96.37 3.96.9Z"/></svg>