<svg width="24" height="24" viewBox="0 0 24 24" fill="none" xmlns="http://www.w3.org/2000/svg">
<path d="M3.6 0.25H20.4C22.2502 0.25 23.75 1.74985 23.75 3.6V20.4C23.75 22.2502 22.2502 23.75 20.4 23.75H3.6C1.74985 23.75 0.25 22.2502 0.25 20.4V3.6C0.25 1.74985 1.74985 0.25 3.6 0.25Z" fill="#1B1817" stroke="white" stroke-width="0.5"/>
<path d="M15.7032 23.2052C16.3594 23.2052 16.2657 23.9938 16.2657 23.9938H7.73441C7.73441 23.9938 7.64066 23.2052 8.29691 23.2052C8.90628 23.2052 9.04691 22.9269 9.04691 22.6486L9.00003 20.3294C5.67191 21.0716 4.96878 19.0307 4.96878 19.0307C4.40628 17.6391 3.65628 17.3144 3.65628 17.3144C2.53128 16.5723 3.70316 16.5723 3.70316 16.5723C4.92191 16.665 5.57816 17.7783 5.57816 17.7783C6.60941 19.5873 8.34378 19.077 9.04691 18.7987C9.14066 18.0102 9.46878 17.5 9.79691 17.1753C7.12503 16.897 4.35941 15.8765 4.35941 11.3309C4.35941 10.0321 4.82816 8.96525 5.57816 8.13033C5.43753 7.85203 5.06253 6.64604 5.71878 5.02258C5.71878 5.02258 6.70316 4.69789 9.00003 6.22858C10.9688 5.67196 13.0313 5.67196 15 6.22858C17.2969 4.69789 18.2813 5.02258 18.2813 5.02258C18.9375 6.64604 18.5625 7.85203 18.4219 8.13033C19.1719 8.96525 19.6407 10.0321 19.6407 11.3309C19.6407 15.8765 16.8282 16.897 14.1563 17.1753C14.625 17.5464 15 18.2885 15 19.4017L14.9532 22.6486C14.9532 22.9269 15.0938 23.2052 15.7032 23.2052Z" fill="white"/>
</svg>
